<svg version="1.0" xmlns="http://www.w3.org/2000/svg" viewBox="0 0 750 750">
  <path d="M424 244c2.81-13.78 12.07-11.32 21-12.17l16-1.9c16.51-1.56 39.59-10.74 55-9.89 4.98.28 9 2.3 12.22 6.14 1.73 2.08 3.54 6.54 6.82 5.62 1.36-.38 2.94-1.89 3.94-2.84 6.86-6.53 9.21-16.75 9.01-25.96l-1.72-13-1.73-15-2.87-11-2.39-16-3.28-42-1-16V67c.08-6.71 1.24-21.87 3.22-28 5.14-15.91 19.91-21.96 32.69-9.83C582.86 40.5 592.6 57.64 598.18 73c2.42 6.66 4.46 10.69 4.82 18l9-7.25c7.1-5.38 15.01-9.6 23-13.49 12.23-5.97 24.18-11.44 38-11.26 2.51.04 4.61.04 7 1.01 17.44 7.06 10.45 27.54 4.69 39.99-10.56 22.82-25.26 42.44-45.69 57.2-13.43 9.69-22.29 15.23-39 10.8-3.53 11.84-9.04 23.22-15.04 34l-9.15 15-2.56 9c-3.1 9.47-9.65 21.24-19.25 25 2.83 5.51 8.49 8.38 11.43 14 1.86 3.55 1.61 7.12 1.57 11l-7.72 40-4.79 37c-1.92 6.38-6.77 8.27-12.49 10 7.67 13.53 8.82 19.81 13.04 34l3.75 11c2.38 7.94 4.84 19.76 5.92 28l1.29 20 .96 12v15l-.96 19c-.1 7.96-2.02 13.46-3.39 21-4.01 22.11-11.31 42.95-21.34 63-13.35 26.69-22.8 40.11-43.18 62-6.48 6.95-12.8 13.79-20.1 19.92-14.67 12.3-42.35 30.04-59.99 37.49l-23 8.26c-10.81 3.71-21.71 7.1-33 9.16l-13 1.45-26 2.72h-26l-36-4.45-15-4.13c-18.13-5.17-26.9-8.24-44-16.42-1.02 4.79-3.47 8.55-8 10.83-3.2 1.6-8.18 1.01-12 1.61l-30 4.69-36 6.87h-13c-12.12-.02-21.3-5.46-29.58-14-3.91-4.04-6.21-6.84-8.62-12-2.96-6.32-3.79-10.12-3.8-17v-9l10.83-65c.96-9.89-.73-22.39 13.17-24-4.63-8.93-7.86-18.48-11-28-3.3-10-7.57-22.74-9.39-33l-1.36-11c-1.02-6.27-2.22-11.59-2.25-18l-1-33 1-14c.08-15.31 5.95-37.28 10.66-52l5.54-17 8.53-18c27.62-55.23 72.71-99.04 130.27-122.42l21-6.62 25-7.29 8-.85 8-1.81h8l18-2.01h27c8.15.04 8.52 1.17 15 1.83l13 1.43c23.89 4.46 42.77 11.31 65 20.74ZM556 30.72C542.19 33.86 544.17 53 542.91 64L542 76c-.05 29.16 2 51.21 6.13 80 2.81 15.91 6.9 31.68 6.92 48-.03 13.97-.14 19.84-9.99 29.58-2.11 2.54-4.15 5.94-1.46 8.97 4.33 4.89 11.11-2.18 13.78-5.52 8.92-11.19 6.87-17.12 9.7-23.03l8.04-14.94c24.24-43.47 33.12-86.55 11.1-133.06-3.79-8-11.08-19.06-16.43-25.96-3.83-4.65-7.57-8.62-13.79-9.32Zm113 35.75c-14.79 2.25-35.5 11.99-47.95 20.26-4.21 2.87-11.59 7.25-13.14 12.25.12 2.15.95 10.14 1 14.08.53 10.14.21 19.86-1.15 29.95l-1.92 11.01c-.77 4.86.84 7.47 5.16 7.43 5.96-.05 16.13-6.84 21-10.12 20.4-14.37 32.22-31.28 43.12-53.33 4.39-8.54 14.5-26.57-.03-31.33-2.37-.52-3.84-.54-6.09-.2ZM301.01 227.36l-20.99 1.97c-13.57 1.74-31.92 6.17-44.93 10.45-60.85 20.04-113.03 64.95-141.7 122.3-42.69 85.37-32.62 187.61 26.08 262.91 16.82 21.58 35.84 38.52 58.55 53.64 18.96 12.62 42.09 23.48 64.02 29.74 18.59 5.3 34.69 8.28 53.96 9.63l10.01.91c43.16-.04 75.64-7.37 114.99-24.95 22.43-10.35 48.55-29.68 65.89-47.03C571.94 561 582.98 424.6 511.12 327c-15.11-20.52-33.5-38.62-54.24-53.45-22.44-16.04-47.38-28.45-73.91-36.07-23.46-6.74-57.72-12.38-81.96-10.12Zm211.68 1.04L481 234.79l-28.96 4.72c-5.54.72-18.63-1.43-18.63 6.3 0 4.78 10.8 9.25 14.59 11.61 19.26 12.1 28.83 20.82 42 32.75 16.39 16.05 28.8 32.62 37.31 45.83 11.11 17.47 8.47 15.38 12.63 16.59 4.51-.18 5.45-3.1 5.87-6.64l.75-7.89 2.35-21.03 7.39-35.06c.56-3.92 2.34-10.25.4-13.84-1.95-4.2-7.05-6.27-10.7-8.91-3.94-2.86-10.44-9.5-14.03-13.19-10.08-10.35-9.17-17.19-19.28-17.63ZM85.04 593.91c-4.89 2.51-4.84 7.95-5.03 13.09-.35 9.72-2.27 19.44-3.93 29-4.49 25.95-17.01 52.03 6.92 72.81 3.85 3.34 7.25 4.85 12 6.49 6.24 2.16 10.52 1.77 17 1.7l65-10.96c3.82-.19 18.62-.3 14.92-7.83-1.1-2.24-4.8-3.87-6.92-5.07l-14-8.81c-14.9-9.93-28.42-21.61-41-34.33-12.21-12.36-22.91-26.41-32.31-41-1.92-2.98-7.43-13.7-9.9-15.09-1.57-.6-2.22-.15-2.75 0Z"/>
  <path fill="#99d966" d="M554 30.78c7.36-1.07 11.6 3.93 15.79 9.22 8.19 10.34 15.14 21.72 20.01 34 14.52 36.67 11.05 71.3-4.23 107l-17.77 32c-3.29 6.07-1.44 11.43-8.02 21-2.27 3.31-6.91 8.97-10.78 10.22-4.23 1.36-8.34-1.91-7.16-6.22 1.06-3.85 6.38-7.42 9.16-12 2.97-4.9 3.97-13.32 4-19 .09-19-4.98-37.35-7.73-56-4.21-28.57-5.6-51.15-5.27-80l.91-10c.75-10.74.06-24.61 11.09-30.22Zm113 35.56c2.31-.19 4.67-.53 7 0 16.82 2.86 4.94 25.05.74 33.66-9.39 19.27-25.53 40.69-43.74 52.19-4.58 2.89-13.7 8.79-19 9.33-3.26.33-6.5-.98-6.7-4.62l2.41-13.9c1.18-8.99 1.3-17.95 1.29-27l-1.17-17c1.56-5.02 8.93-9.52 13.17-12.33 13.32-8.84 30.34-16.73 46-20.33Z"/>
  <path fill="#f2e673" d="M300 227.42c19.76-2.4 53.46 2.32 73 7.21 68.99 17.25 127.82 63.54 159.73 127.37 18.31 36.62 26.74 77.21 26.27 118l-.91 10c-1.03 14.7-3.13 28.68-6.72 43-17.41 69.66-62.63 126.12-126.37 159.22-36.36 18.88-78.27 27.25-119 26.78l-10-.91c-19.27-1.35-35.41-4.37-54-9.67-21.93-6.26-45.03-17.13-64-29.75-22.71-15.12-41.75-32.09-58.58-53.67-58.69-75.3-68.84-177.63-26.15-263 28.67-57.34 80.87-102.29 141.73-122.33 13.01-4.28 31.43-8.65 45-10.39l20-1.86Zm211 1.01c11.81-1.15 11.35 7.61 21.02 17.57 3.13 3.23 9.63 9.89 12.98 12.39 3.74 2.8 9.63 5.43 11.82 9.65 1.98 3.8.19 10.8-.62 14.96l-7.12 34-3.1 28c-.15 3.52-.9 6.91-4.98 7.63-1.65.29-3.11-.14-4.37-1.23L526.56 335C514 315.26 498.35 297.76 481 282.17c-9.5-8.54-23.04-18.58-34-25.17-3.32-2-12.95-6.38-13.63-10.1-1.59-8.7 12.41-6.76 17.63-7.48l31-4.87 29-6.12Zm-285.06 27.22c-6.55.94-26.59 11.72-32.94 15.55-29.4 17.76-54.08 40.24-73.33 68.8-8.92 13.23-14.1 22.62-20.77 37-1.43 2.77-6.76 13.37 0 13.37 4.17 0 6.6-7.28 8.02-10.37 4.91-10.69 10.58-21.19 17.08-31 20.25-30.56 51.2-59.57 84-76.24l18.85-9.12c3.95-2.72 3.82-6.53-.91-7.99ZM84.14 593.79c5.53-.56 6.37 2.97 8.87 7.21 4.6 7.8 8.18 13.67 13.62 21 19 25.59 40.48 46.98 67.37 64.31l16.68 10.32c2.54 2.5 2.5 6.15-.91 7.79-2.82 1.35-10.47 1.44-13.77 1.67l-17 2.19-46 8.72h-7c-6.39-.03-9.11-.51-15-3.18-4.53-2.05-6.39-3.4-10-6.86-16.51-15.88-13.04-33.9-8.5-53.96l4.89-24 2.78-25c.4-4.21.29-7.76 3.97-10.21Z"/>
  <path fill="#fff" d="M222.96 254.83c8.63-1.12 10.28 4.54 6.39 8.74-1.78 1.91-9.77 5.11-12.61 6.52-8.6 4.27-17.03 8.73-25.09 14-24.1 15.74-44.89 35.16-61.65 58.61-8.1 11.33-15.38 23.46-21.19 36.11-1.89 4.13-3.86 11.49-8.87 12.35-8.42 1.44-4.55-8.09-2.82-12.16 5.98-14 13.15-28.24 21.65-40.84 17.8-26.43 41.64-48.01 68.4-65.07 8.68-5.54 26.19-15.45 35.79-18.26Z"/>
</svg>